<svg xmlns="http://www.w3.org/2000/svg" xmlns:xlink="http://www.w3.org/1999/xlink" width="255.074" height="262.435" viewBox="0 0 255.074 262.435"><defs><clipPath id="a"><rect width="255.074" height="262.435" fill="#fff" style="mix-blend-mode:difference;isolation:isolate"/></clipPath></defs><g transform="translate(39.522 45.985)"><path d="M99.233,60.933c33.653-81.245-56.087-81.245-22.435,0C43.145-20.312-20.311,43.144,60.934,76.8c-81.245-33.653-81.245,56.087,0,22.435C-20.311,132.884,43.145,196.34,76.8,115.1c-33.653,81.245,56.087,81.245,22.435,0,33.653,81.245,97.109,17.788,15.864-15.864,81.245,33.653,81.245-56.087,0-22.435,81.245-33.653,17.788-97.109-15.864-15.864" transform="translate(0 0.001)" fill="#fff"/></g><path d="M59.339,0,57.358,19.942l3.886.386L62.9,3.665l.054,0,1.981,17.025,4.083.406L74.4,4.806l.054.007L72.8,21.479l3.888.384L78.671,1.921l-6.028-.6L67.527,16.69l-.056-.007L65.421.605Z" transform="translate(70.744)" fill="#fff"/><g clip-path="url(#a)"><path d="M73.235,19.628c-3.846-1.076-6.651-4.413-5.2-9.577s5.577-6.557,9.42-5.478,6.651,4.413,5.206,9.574-5.579,6.559-9.423,5.481M76.563,7.744c-2.9-.813-4.147,1.563-4.661,3.393s-.683,4.5,2.222,5.318,4.15-1.563,4.661-3.39.683-4.507-2.222-5.32" transform="translate(83.432 5.22)" fill="#fff"/><path d="M80.071,6.16,83.524,7.6l-.987,2.37.051.022c1.327-1.083,2.709-2.077,4.9-1.166a6.638,6.638,0,0,1,.677.344l-1.525,3.656a6.908,6.908,0,0,0-1.009-.48c-2.81-1.17-4.054.369-4.686,1.887l-2.973,7.138-3.609-1.5Z" transform="translate(91.714 7.598)" fill="#fff"/><path d="M91.033,22.712a6.424,6.424,0,0,1-8.007,1c-3.663-2.017-5.5-5.324-2.557-10.676.862-1.566,4.159-6.276,9.851-3.14,2.566,1.414,5.438,4.587,2.166,10.524l-.339.61L83.23,16.121c-.44,1.032-1.456,3.337,1.3,4.86a2.513,2.513,0,0,0,2.982-.208Zm-1.177-5.84c.963-2.209-.033-3.582-1.132-4.19-1.613-.889-3.033-.333-4.17,1.269Z" transform="translate(97.446 10.909)" fill="#fff"/><path d="M90.712,28.975c-3.024-2.6-4.154-6.81-.659-10.874s7.824-3.578,10.852-.976,4.154,6.814.661,10.877-7.826,3.578-10.854.974m8.045-9.353c-2.285-1.965-4.42-.339-5.655,1.1s-2.526,3.792-.241,5.758,4.42.342,5.659-1.1,2.521-3.792.237-5.758" transform="translate(108.405 18.636)" fill="#fff"/><path d="M96.21,35.968,93.485,32.9l7.573-13.851,2.892,3.258L97.8,31.867l.038.042L108.122,27l2.76,3.113Z" transform="translate(115.302 23.49)" fill="#fff"/><path d="M106.435,40.7a6.428,6.428,0,0,1-7.6-2.727c-2.356-3.46-2.5-7.245,2.551-10.687,1.476-1.005,6.553-3.719,10.213,1.659,1.648,2.423,2.774,6.553-2.832,10.37l-.578.393-5.733-8.422c-.86.721-2.812,2.32-1.036,4.927a2.512,2.512,0,0,0,2.752,1.166Zm1.592-5.744c1.86-1.534,1.595-3.212.887-4.25-1.034-1.523-2.555-1.671-4.295-.755Z" transform="translate(119.958 31.71)" fill="#fff"/><path d="M113.359,31.343l1.738,3.31-2.271,1.2.025.047c1.711.016,3.413.132,4.516,2.231a6.39,6.39,0,0,1,.3.695l-3.511,1.843a6.649,6.649,0,0,0-.469-1.014c-1.414-2.693-3.352-2.3-4.815-1.539l-6.841,3.6-1.818-3.46Z" transform="translate(123.601 38.658)" fill="#fff"/><path d="M107.557,57.7l-1.141-3.739,8.632-2.633c1.041-.315,2.79-.907,2.061-3.285-.5-1.655-2.017-2.6-4.181-1.936l-8.147,2.484-1.141-3.741,19.182-5.847,1.141,3.741-6.814,2.075.018.056a4.584,4.584,0,0,1,3.471,3.437c.846,2.778-.123,5.438-3.25,6.392Z" transform="translate(127.827 48.11)" fill="#fff"/><path d="M111.7,62a6.431,6.431,0,0,1-5.693-5.722c-.643-4.134.846-7.614,6.886-8.556,1.764-.275,7.509-.547,8.511,5.876.451,2.894-.306,7.107-7,8.15l-.69.107-1.568-10.061c-1.085.281-3.533.889-3.046,4a2.5,2.5,0,0,0,1.985,2.231Zm3.9-4.5c2.338-.59,2.819-2.218,2.624-3.46-.281-1.818-1.59-2.6-3.556-2.524Z" transform="translate(130.576 58.72)" fill="#fff"/><path d="M121.4,55.072l.154,3.736L119,58.916l0,.056c1.539.744,3.024,1.577,3.122,3.946a7.117,7.117,0,0,1-.022.755l-3.96.165a7.425,7.425,0,0,0,.011-1.117c-.127-3.042-2.046-3.518-3.69-3.451l-7.723.319-.163-3.9Z" transform="translate(131.445 67.925)" fill="#fff"/><path d="M110.716,73.159a6.428,6.428,0,0,1-4.308-6.823c.27-4.176,2.481-7.247,8.581-6.852,1.78.116,7.451,1.1,7.028,7.585-.19,2.923-1.84,6.87-8.61,6.432l-.7-.045.661-10.162c-1.121.038-3.643.1-3.846,3.245a2.507,2.507,0,0,0,1.452,2.611ZM115.5,69.61c2.41-.067,3.232-1.55,3.312-2.805.121-1.836-.985-2.888-2.919-3.236Z" transform="translate(131.219 73.324)" fill="#fff"/><path d="M105.045,74.088l.965-3.962,3.826.934-.967,3.96Zm5.637.337.489-2.006,9.378,1.135,4.965,1.21L124.5,78.941l-4.965-1.21Z" transform="translate(129.56 86.492)" fill="#fff"/><path d="M113.923,84.082a4.607,4.607,0,1,1-2.488-6,4.571,4.571,0,0,1,2.488,6" transform="translate(129.567 95.855)" fill="#fff"/><path d="M95.561,99.722l2.2-3.229,13.845,9.447.031-.047L99.905,93.355l2.314-3.39,15.908,6.423.029-.047L104.314,86.9l2.2-3.229,16.565,11.3-3.448,5.054-15.1-5.914-.031.047,11.042,11.864-3.415,5.007Z" transform="translate(117.863 103.193)" fill="#fff"/><path d="M93.7,95.21c2.781-2.861,7.051-3.73,10.892.007s3.093,8.029.31,10.89-7.055,3.73-10.894-.007-3.091-8.029-.308-10.89m8.84,8.6c2.1-2.16.61-4.389-.748-5.713s-3.631-2.752-5.731-.592-.612,4.391.75,5.713,3.629,2.754,5.729.592" transform="translate(112.691 114.37)" fill="#fff"/><path d="M100.383,108.537l-2.91,2.352-1.613-2-.045.036c.319,1.682.536,3.372-1.309,4.864a7.119,7.119,0,0,1-.621.429l-2.492-3.082a7.555,7.555,0,0,0,.9-.659c2.363-1.912,1.606-3.741.572-5.021l-4.862-6.012,3.037-2.459Z" transform="translate(108.547 119.623)" fill="#fff"/><path d="M82.358,109.446a6.432,6.432,0,0,1,2.93-7.524c3.52-2.265,7.308-2.312,10.615,2.83.965,1.5,3.544,6.651-1.927,10.166-2.466,1.586-6.624,2.6-10.294-3.107l-.377-.585,8.569-5.51c-.7-.88-2.245-2.872-4.9-1.166a2.508,2.508,0,0,0-1.24,2.72Zm5.7,1.742c1.485,1.9,3.171,1.68,4.228,1,1.55-.994,1.738-2.51.867-4.275Z" transform="translate(101.199 123.904)" fill="#fff"/><path d="M77.148,106.017c3.732-1.418,7.973-.4,9.878,4.61s-.592,8.59-4.326,10.008-7.971.4-9.874-4.612.587-8.587,4.322-10.006m4.384,11.538c2.819-1.07,2.408-3.723,1.733-5.5s-2.128-4.031-4.947-2.959-2.41,3.723-1.735,5.5,2.128,4.029,4.949,2.959" transform="translate(89.014 130.037)" fill="#fff"/><path d="M68.139,108.546l4-.927,8.549,13.262-4.241.985L70.98,111.9l-.054.013-.6,11.372-4.054.94Z" transform="translate(81.739 132.735)" fill="#fff"/><path d="M58.8,114.1a6.429,6.429,0,0,1,6.035-5.36c4.165-.409,7.558,1.275,8.152,7.359.176,1.778.123,7.531-6.347,8.165-2.917.288-7.08-.706-7.741-7.455l-.069-.695,10.137-.994c-.221-1.1-.688-3.578-3.826-3.27a2.508,2.508,0,0,0-2.343,1.856Zm4.277,4.15c.456,2.367,2.055,2.939,3.3,2.819,1.836-.181,2.693-1.445,2.722-3.41Z" transform="translate(72.52 134.045)" fill="#fff"/><path d="M62.271,124.015l-3.741-.058.042-2.571h-.058c-.833,1.494-1.749,2.932-4.121,2.894a7.084,7.084,0,0,1-.753-.067l.063-3.964a6.966,6.966,0,0,0,1.117.074c3.04.047,3.629-1.843,3.656-3.489l.121-7.73,3.908.063Z" transform="translate(66.16 134.568)" fill="#fff"/><path d="M44.937,107.512l3.832.779-1.8,8.84c-.217,1.065-.527,2.883,1.91,3.377,1.7.346,3.243-.538,3.692-2.754l1.7-8.346,3.83.775-3.989,19.649-3.83-.777,1.416-6.979-.054-.009a4.584,4.584,0,0,1-4.677,1.414c-2.845-.576-4.724-2.7-4.074-5.9Z" transform="translate(52.745 132.603)" fill="#fff"/><path d="M37.4,108.557a6.433,6.433,0,0,1,7.748-2.28c3.949,1.4,6.3,4.377,4.246,10.14-.6,1.682-3.1,6.872-9.228,4.688-2.763-.985-6.108-3.661-3.832-10.052l.235-.659,9.6,3.422c.27-1.09.9-3.533-2.068-4.59a2.509,2.509,0,0,0-2.912.681Zm2.1,5.581c-.6,2.338.607,3.538,1.793,3.958,1.735.621,3.051-.159,3.917-1.925Z" transform="translate(43.887 130.515)" fill="#fff"/><path d="M37.6,119.045,34.237,117.4l1.132-2.307-.051-.025c-1.391,1-2.832,1.907-4.965.862a7.1,7.1,0,0,1-.652-.382l1.746-3.562a7.214,7.214,0,0,0,.98.543c2.731,1.342,4.071-.121,4.8-1.6l3.406-6.948,3.513,1.722Z" transform="translate(36.633 128.246)" fill="#fff"/><path d="M28.2,102.325a6.434,6.434,0,0,1,8.056-.514c3.538,2.238,5.175,5.653,1.907,10.818-.956,1.51-4.534,6.014-10.03,2.535-2.477-1.568-5.148-4.909-1.521-10.64l.373-.59,8.605,5.449c.5-1.005,1.659-3.247-1.007-4.931a2.508,2.508,0,0,0-2.988.022Zm.822,5.905c-1.094,2.148-.185,3.582.875,4.252,1.557.987,3.008.518,4.241-1.014Z" transform="translate(30.633 124.122)" fill="#fff"/><path d="M26.887,100.29l1.528,1.389-5.483,7.69L19.5,113.148l-3.18-2.892,3.435-3.779ZM29.879,95.5,32.9,98.247l-2.649,2.91-3.015-2.74Z" transform="translate(20.124 117.793)" fill="#fff"/><path d="M13.442,99.009a4.607,4.607,0,1,1,6.461.677,4.573,4.573,0,0,1-6.461-.677" transform="translate(15.281 112.836)" fill="#fff"/><path d="M20.062,78.138l1.793,3.475L6.97,89.3l.025.049,16.6-4.364,1.885,3.647L12.274,99.572l.025.049,14.885-7.687,1.8,3.471-17.813,9.2L8.361,99.172,20.737,88.695l-.027-.051L5.029,92.722,2.247,87.337Z" transform="translate(2.771 96.374)" fill="#fff"/><path d="M17.568,76.9c1.186,3.81-.092,7.98-5.208,9.57S3.83,85.351,2.646,81.539s.092-7.975,5.208-9.566,8.529,1.119,9.713,4.929M5.791,80.563c.893,2.879,3.564,2.633,5.376,2.07s4.152-1.874,3.256-4.753-3.562-2.633-5.376-2.07S4.9,77.684,5.791,80.563" transform="translate(2.758 88.198)" fill="#fff"/><path d="M2.29,76l-.672-3.681,2.528-.46L4.135,71.8C2.509,71.278.919,70.657.492,68.323a7.005,7.005,0,0,1-.08-.75l3.9-.712a6.914,6.914,0,0,0,.145,1.108c.547,2.995,2.515,3.2,4.134,2.908L16.2,69.489l.7,3.846Z" transform="translate(0.508 82.464)" fill="#fff"/><path d="M10.389,59.871a6.432,6.432,0,0,1,5.2,6.173c.3,4.176-1.472,7.524-7.567,7.964-1.782.13-7.535-.071-8-6.559-.212-2.923.887-7.062,7.654-7.549l.7-.051.733,10.162c1.106-.192,3.6-.6,3.368-3.741a2.507,2.507,0,0,0-1.8-2.39ZM6.13,64.041c-2.379.4-2.993,1.981-2.9,3.232C3.361,69.113,4.6,70,6.566,70.082Z" transform="translate(0 73.817)" fill="#fff"/><path d="M15.906,57.227c-.527,3.958-3.437,7.2-8.748,6.5s-7.274-4.6-6.749-8.558,3.437-7.2,8.75-6.5,7.272,4.6,6.747,8.558M3.674,55.6c-.4,2.99,2.131,3.888,4.011,4.141s4.558.04,4.956-2.948-2.131-3.886-4.013-4.136S4.071,52.61,3.674,55.6" transform="translate(0.402 59.907)" fill="#fff"/><path d="M18.021,49.949l-1.092,3.958L1.186,55.1l1.159-4.2,11.37-.051.016-.051L4.015,44.839l1.11-4.011Z" transform="translate(1.462 50.357)" fill="#fff"/><path d="M17.359,37.362A6.429,6.429,0,0,1,19.2,45.225c-1.624,3.859-4.724,6.037-10.358,3.663-1.646-.692-6.682-3.48-4.159-9.474,1.139-2.7,4-5.892,10.249-3.258l.643.27-3.955,9.391c1.072.333,3.473,1.1,4.7-1.8a2.514,2.514,0,0,0-.516-2.946ZM11.67,39.146c-2.3-.726-3.564.409-4.051,1.566-.717,1.7-.013,3.053,1.7,4.018Z" transform="translate(4.915 43.38)" fill="#fff"/><path d="M6.49,37.017l1.836-3.261,2.238,1.26.027-.047c-.916-1.445-1.742-2.935-.578-5a6.565,6.565,0,0,1,.42-.63l3.455,1.945a7,7,0,0,0-.6.945C11.8,34.877,13.177,36.3,14.613,37.1L21.351,40.9l-1.916,3.408Z" transform="translate(8.005 36.182)" fill="#fff"/><path d="M33.606,29l-2.517,2.99-6.9-5.811c-.833-.7-2.278-1.847-3.879.056-1.117,1.322-1.081,3.1.648,4.563l6.517,5.49-2.519,2.99L9.611,26.356l2.519-2.99,5.447,4.587.038-.042a4.583,4.583,0,0,1,1-4.784c1.872-2.222,4.632-2.854,7.131-.75Z" transform="translate(11.854 26.01)" fill="#fff"/><path d="M32.463,21.431a6.435,6.435,0,0,1-1.688,7.893c-3.113,2.794-6.843,3.444-10.926-1.1-1.193-1.327-4.556-5.992.279-10.338,2.18-1.956,6.119-3.623,10.651,1.423l.467.52-7.578,6.8c.829.757,2.673,2.477,5.018.369a2.509,2.509,0,0,0,.788-2.881Zm-5.9-.808c-1.771-1.635-3.4-1.152-4.328-.313-1.371,1.231-1.313,2.756-.176,4.357Z" transform="translate(21.703 19.696)" fill="#fff"/><path d="M22.527,16.8l3.044-2.171,1.49,2.093.047-.033c-.217-1.7-.331-3.395,1.6-4.773a6.435,6.435,0,0,1,.645-.391l2.3,3.227a7.267,7.267,0,0,0-.942.6c-2.477,1.764-1.831,3.631-.878,4.974l4.485,6.3-3.183,2.267Z" transform="translate(27.784 14.218)" fill="#fff"/><path d="M42.3,16.227a6.43,6.43,0,0,1-3.388,7.33c-3.652,2.046-7.439,1.858-10.421-3.477-.873-1.559-3.131-6.854,2.546-10.032,2.559-1.432,6.772-2.189,10.086,3.734l.342.607L32.57,19.365c.643.92,2.064,3,4.817,1.463a2.507,2.507,0,0,0,1.4-2.64Zm-5.586-2.093c-1.367-1.988-3.062-1.869-4.156-1.255-1.613.9-1.892,2.4-1.132,4.212Z" transform="translate(33.677 11.145)" fill="#fff"/><path d="M44.139,17.144l-1.952.683-4.15-8.5L36.356,4.505l4.063-1.418L42.1,7.913Zm2.781,4.92-3.853,1.342-1.3-3.719,3.853-1.344Z" transform="translate(44.841 3.807)" fill="#fff"/><path d="M48.284,3.577a4.606,4.606,0,0,1,1.7,9.054A4.564,4.564,0,0,1,44.6,8.926a4.552,4.552,0,0,1,3.683-5.349" transform="translate(54.909 4.312)" fill="#fff"/></g></svg>